<svg width="2500" height="872" viewBox="0 0 2500 872" fill="none" xmlns="http://www.w3.org/2000/svg">
<g clip-path="url(#clip0)">
<path d="M140.18 158.914H0V711.425H140.18C292.674 711.425 416.41 587.756 416.41 435.078C416.41 282.584 292.669 158.914 140.18 158.914Z" fill="#B4B8B7"/>
<path d="M135.575 10.7852H0.644531V170.137H135.575C282.359 170.137 401.447 289.155 401.447 436.009C401.447 582.906 282.359 701.863 135.575 701.863H0.644531V861.215H135.575C370.417 861.215 566.025 689.177 566.025 436.009C566.025 179.554 370.417 10.7852 135.575 10.7852V10.7852ZM479.905 861.215H639.441V701.858H479.905V861.215ZM2074.73 436.009L2387.29 123.495V10.7852H2269.28L1903.82 376.202V10.7852H480.846V170.137H780.495V861.215H947.651V170.137H1248.77C1193.8 240.373 1160.74 330.731 1160.74 436.009C1160.74 689.177 1356.3 861.215 1591.12 861.215H1903.82V495.817L2269.28 861.215H2500L2074.73 436.009ZM1736.66 701.863H1591.12C1471.2 701.863 1369.81 622.276 1336.76 513.084H1572.77V358.728H1336.76C1369.82 249.649 1471.27 170.137 1591.12 170.137H1736.66V701.863Z" fill="#B4B8B7"/>
</g>
<defs>
<clipPath id="clip0">
<rect width="2500" height="872" fill="white"/>
</clipPath>
</defs>
</svg>
